<svg width="140" height="20" viewBox="0 0 140 20" fill="none" xmlns="http://www.w3.org/2000/svg">
<path d="M17.208 19.368C17.048 19.368 16.888 19.36 16.728 19.344C16.568 19.328 16.4 19.304 16.224 19.272C15.136 19.064 14.152 18.704 13.272 18.192C12.392 17.68 11.6 17.08 10.896 16.392C10.208 15.72 9.576 15.008 9 14.256C8.44 13.504 7.928 12.784 7.464 12.096C7 11.392 6.568 10.776 6.168 10.248C6.136 10.168 6.096 10.144 6.048 10.176C6.016 10.208 6 10.224 6 10.224C5.648 10.896 5.32 11.528 5.016 12.12C4.728 12.696 4.512 13.16 4.368 13.512C4.24 13.864 4.176 14.112 4.176 14.256C4.176 14.48 4.264 14.592 4.44 14.592C4.664 14.592 4.904 14.44 5.16 14.136C5.336 13.928 5.496 13.736 5.64 13.56C5.8 13.368 5.936 13.288 6.048 13.32C6.064 13.336 6.072 13.36 6.072 13.392C6.072 13.472 6.016 13.584 5.904 13.728C5.792 13.856 5.728 13.928 5.712 13.944C5.6 14.104 5.448 14.32 5.256 14.592C5.08 14.864 4.888 15.104 4.68 15.312C4.488 15.536 4.28 15.648 4.056 15.648C4.024 15.648 3.928 15.632 3.768 15.6C3.624 15.568 3.48 15.528 3.336 15.48C3.208 15.432 3.136 15.376 3.12 15.312C3.088 15.008 3.16 14.584 3.336 14.04C3.528 13.48 3.784 12.864 4.104 12.192C4.424 11.52 4.752 10.864 5.088 10.224C4.832 10.16 4.648 10.104 4.536 10.056C4.376 9.944 4.296 9.792 4.296 9.6C4.296 9.44 4.36 9.296 4.488 9.168C4.616 9.04 4.808 8.976 5.064 8.976C5.144 8.976 5.24 8.992 5.352 9.024C5.464 9.056 5.552 9.112 5.616 9.192C5.888 8.712 6.128 8.272 6.336 7.872C6.56 7.472 6.72 7.16 6.816 6.936C6.912 6.76 6.976 6.616 7.008 6.504C7.04 6.376 7.056 6.28 7.056 6.216C7.056 6.12 7.04 6.04 7.008 5.976C7.04 5.784 7.152 5.528 7.344 5.208C7.552 4.888 7.808 4.568 8.112 4.248C8.416 3.928 8.744 3.664 9.096 3.456C9.448 3.232 9.776 3.12 10.08 3.12C10.176 3.12 10.32 3.152 10.512 3.216C10.72 3.264 10.912 3.344 11.088 3.456C11.28 3.568 11.4 3.728 11.448 3.936C11.464 3.984 11.472 4.032 11.472 4.08C11.472 4.128 11.456 4.152 11.424 4.152C11.392 4.152 11.344 4.144 11.28 4.128C11.232 4.096 11.192 4.08 11.16 4.08C10.712 4.08 10.208 4.352 9.648 4.896C9.104 5.424 8.544 6.104 7.968 6.936C7.408 7.768 6.88 8.632 6.384 9.528C6.464 9.544 6.552 9.568 6.648 9.6C6.76 9.616 6.888 9.624 7.032 9.624C7.096 9.624 7.152 9.624 7.2 9.624C7.264 9.624 7.328 9.616 7.392 9.6C8.416 9.488 9.456 9.288 10.512 9C11.584 8.712 12.584 8.336 13.512 7.872C14.44 7.408 15.208 6.864 15.816 6.24C16.376 5.648 16.656 5.04 16.656 4.416C16.656 3.952 16.48 3.52 16.128 3.12C15.776 2.72 15.224 2.416 14.472 2.208C14.024 2.08 13.512 1.984 12.936 1.92C12.376 1.856 11.768 1.824 11.112 1.824C10.088 1.824 9.032 1.912 7.944 2.088C6.872 2.264 5.864 2.536 4.92 2.904C3.976 3.256 3.184 3.704 2.544 4.248C1.904 4.792 1.52 5.44 1.392 6.192C1.344 6.576 1.416 6.88 1.608 7.104C1.8 7.328 2.032 7.504 2.304 7.632C2.592 7.744 2.816 7.848 2.976 7.944C3.088 8.04 3.144 8.12 3.144 8.184C3.144 8.296 3.04 8.336 2.832 8.304C2.608 8.256 2.328 8.144 1.992 7.968C1.672 7.792 1.384 7.552 1.128 7.248C0.888 6.928 0.768 6.56 0.768 6.144C0.768 6.08 0.768 6.016 0.768 5.952C0.784 5.888 0.8 5.824 0.816 5.76C0.816 5.744 0.808 5.696 0.792 5.616C0.792 5.52 0.792 5.44 0.792 5.376C0.888 4.88 1.128 4.416 1.512 3.984C1.912 3.536 2.36 3.144 2.856 2.808C3.368 2.456 3.84 2.176 4.272 1.968C5.024 1.6 5.928 1.312 6.984 1.104C8.04 0.879999 9.144 0.767999 10.296 0.767999C11 0.767999 11.696 0.815999 12.384 0.912C13.088 1.008 13.768 1.16 14.424 1.368C15.336 1.672 16.04 2.144 16.536 2.784C17.048 3.408 17.28 4.064 17.232 4.752C17.184 5.408 16.952 6 16.536 6.528C16.136 7.056 15.616 7.52 14.976 7.92C14.352 8.304 13.656 8.64 12.888 8.928C12.136 9.2 11.376 9.424 10.608 9.6C9.984 9.728 9.328 9.832 8.64 9.912C7.952 9.992 7.304 10.048 6.696 10.08C7.384 10.928 8.064 11.784 8.736 12.648C9.424 13.496 10.152 14.296 10.92 15.048C11.704 15.8 12.56 16.44 13.488 16.968C14.416 17.512 15.464 17.896 16.632 18.12C16.872 18.168 17.12 18.192 17.376 18.192C17.792 18.192 18.2 18.128 18.6 18C19.016 17.872 19.36 17.672 19.632 17.4C19.904 17.128 20.04 16.768 20.04 16.32C20.04 16.24 20.032 16.16 20.016 16.08C20.016 16 20.008 15.92 19.992 15.84C19.992 15.808 19.984 15.784 19.968 15.768C19.968 15.752 19.968 15.736 19.968 15.72C19.968 15.576 20.024 15.504 20.136 15.504C20.296 15.504 20.4 15.624 20.448 15.864C20.496 16.104 20.52 16.328 20.52 16.536C20.52 16.776 20.496 17 20.448 17.208C20.416 17.416 20.368 17.608 20.304 17.784C20.16 18.232 19.792 18.608 19.2 18.912C18.624 19.216 17.96 19.368 17.208 19.368ZM20.5701 15.24C20.2981 15.24 20.0421 15.176 19.8021 15.048C19.5781 14.92 19.4101 14.68 19.2981 14.328C19.2501 14.184 19.2261 13.984 19.2261 13.728C19.2261 13.376 19.2741 12.984 19.3701 12.552C19.4661 12.12 19.5701 11.752 19.6821 11.448C19.6021 11.48 19.4501 11.624 19.2261 11.88C19.0181 12.12 18.7541 12.416 18.4341 12.768C18.1301 13.104 17.7861 13.448 17.4021 13.8C17.0341 14.136 16.6501 14.416 16.2501 14.64C15.8501 14.864 15.4581 14.976 15.0741 14.976C14.8181 14.976 14.5461 14.904 14.2581 14.76C13.9701 14.6 13.7381 14.4 13.5621 14.16C13.3221 13.84 13.2021 13.512 13.2021 13.176C13.2021 12.744 13.3461 12.296 13.6341 11.832C13.9381 11.368 14.3221 10.92 14.7861 10.488C15.2661 10.04 15.7701 9.64 16.2981 9.288C16.8421 8.92 17.3541 8.616 17.8341 8.376C18.3301 8.12 18.7301 7.952 19.0341 7.872C19.3541 7.776 19.7141 7.728 20.1141 7.728C20.3381 7.728 20.5701 7.76 20.8101 7.824C21.0501 7.872 21.2501 7.96 21.4101 8.088C21.5381 8.152 21.6421 8.24 21.7221 8.352C21.8021 8.464 21.8421 8.584 21.8421 8.712C21.8421 8.84 21.7861 8.88 21.6741 8.832C21.5461 8.64 21.3701 8.52 21.1461 8.472C20.9381 8.408 20.7221 8.376 20.4981 8.376C19.8581 8.376 19.1541 8.584 18.3861 9C17.6181 9.416 16.9301 9.904 16.3221 10.464C16.1301 10.624 15.8661 10.904 15.5301 11.304C15.2101 11.688 14.9141 12.112 14.6421 12.576C14.3701 13.04 14.2341 13.464 14.2341 13.848C14.2341 14.056 14.2901 14.24 14.4021 14.4C14.4661 14.512 14.5701 14.568 14.7141 14.568C14.9381 14.568 15.2341 14.448 15.6021 14.208C15.9861 13.968 16.3781 13.68 16.7781 13.344C17.1781 12.992 17.5381 12.656 17.8581 12.336C18.1941 12.016 18.4341 11.784 18.5781 11.64C18.6581 11.56 18.8101 11.4 19.0341 11.16C19.2741 10.904 19.5301 10.632 19.8021 10.344C20.0741 10.056 20.3141 9.808 20.5221 9.6C20.7461 9.392 20.8901 9.288 20.9541 9.288C21.0341 9.288 21.1621 9.312 21.3381 9.36C21.5301 9.392 21.6901 9.448 21.8181 9.528C21.9461 9.608 21.9701 9.712 21.8901 9.84C21.4741 10.448 21.1381 11.088 20.8821 11.76C20.6421 12.416 20.4981 12.936 20.4501 13.32C20.4341 13.384 20.4261 13.448 20.4261 13.512C20.4261 13.56 20.4261 13.616 20.4261 13.68C20.4261 14.32 20.6501 14.64 21.0981 14.64C21.3381 14.64 21.6581 14.496 22.0581 14.208C22.4581 13.92 22.8661 13.576 23.2821 13.176C23.6981 12.776 24.0741 12.392 24.4101 12.024C24.7621 11.64 25.0021 11.352 25.1301 11.16C25.1781 11.112 25.2261 11.088 25.2741 11.088C25.3381 11.088 25.3941 11.12 25.4421 11.184C25.4901 11.232 25.4901 11.296 25.4421 11.376C25.2661 11.664 25.0101 12.008 24.6741 12.408C24.3381 12.808 23.9621 13.208 23.5461 13.608C23.1301 14.008 22.7221 14.352 22.3221 14.64C22.1141 14.8 21.8501 14.936 21.5301 15.048C21.2101 15.176 20.8901 15.24 20.5701 15.24ZM24.3411 15.312C24.2131 15.312 24.1731 15.256 24.2211 15.144C24.2851 15.032 24.3971 14.752 24.5571 14.304C24.7331 13.84 24.9251 13.296 25.1331 12.672C25.3571 12.048 25.5731 11.448 25.7811 10.872C25.6211 11.112 25.4451 11.344 25.2531 11.568C25.0771 11.792 24.9251 11.976 24.7971 12.12C24.7491 12.168 24.7171 12.192 24.7011 12.192C24.6531 12.192 24.6291 12.144 24.6291 12.048C24.6291 11.856 24.6771 11.68 24.7731 11.52C25.1091 11.088 25.3651 10.752 25.5411 10.512C25.7171 10.256 25.8611 10.032 25.9731 9.84C26.1011 9.632 26.2291 9.4 26.3571 9.144C26.3891 8.968 26.4451 8.752 26.5251 8.496C26.6211 8.24 26.8371 8.112 27.1731 8.112C27.6691 8.112 27.9171 8.216 27.9171 8.424C27.9171 8.488 27.9011 8.56 27.8691 8.64C27.8371 8.704 27.8051 8.776 27.7731 8.856C27.5811 9.288 27.3731 9.784 27.1491 10.344C26.9251 10.904 26.7171 11.432 26.5251 11.928C26.3491 12.424 26.2131 12.808 26.1171 13.08C26.2931 12.856 26.5571 12.544 26.9091 12.144C27.2611 11.728 27.6611 11.28 28.1091 10.8C28.5731 10.304 29.0451 9.84 29.5251 9.408C30.0211 8.96 30.4851 8.592 30.9171 8.304C31.3491 8.016 31.7171 7.872 32.0211 7.872C32.3891 7.872 32.5731 8.08 32.5731 8.496C32.5731 8.816 32.4451 9.232 32.1891 9.744C32.0771 9.984 31.9251 10.312 31.7331 10.728C31.5411 11.128 31.3891 11.432 31.2771 11.64C31.5651 11.384 31.8931 11.104 32.2611 10.8C32.6291 10.48 33.0131 10.184 33.4131 9.912C33.8291 9.64 34.2131 9.44 34.5651 9.312C34.6451 9.28 34.8051 9.232 35.0451 9.168C35.2851 9.088 35.4931 9.048 35.6691 9.048C35.9091 9.048 36.0291 9.128 36.0291 9.288C36.0291 9.4 35.9731 9.52 35.8611 9.648C35.5891 10.064 35.3411 10.512 35.1171 10.992C34.9091 11.456 34.7411 11.896 34.6131 12.312C34.4851 12.728 34.4051 13.064 34.3731 13.32C34.3571 13.384 34.3491 13.448 34.3491 13.512C34.3491 13.56 34.3491 13.616 34.3491 13.68C34.3491 14.32 34.5571 14.64 34.9731 14.64C35.2291 14.64 35.5571 14.504 35.9571 14.232C36.3571 13.944 36.7651 13.6 37.1811 13.2C37.5971 12.784 37.9731 12.392 38.3091 12.024C38.6611 11.64 38.9011 11.352 39.0291 11.16C39.0771 11.112 39.1251 11.088 39.1731 11.088C39.2371 11.088 39.2851 11.112 39.3171 11.16C39.3651 11.208 39.3731 11.272 39.3411 11.352C39.1971 11.624 38.9491 11.968 38.5971 12.384C38.2611 12.784 37.8771 13.192 37.4451 13.608C37.0291 14.008 36.6211 14.352 36.2211 14.64C36.0131 14.8 35.7491 14.936 35.4291 15.048C35.1251 15.176 34.8131 15.24 34.4931 15.24C34.2051 15.24 33.9411 15.176 33.7011 15.048C33.4771 14.92 33.3091 14.68 33.1971 14.328C33.1491 14.184 33.1251 14 33.1251 13.776C33.1251 13.424 33.1731 13.024 33.2691 12.576C33.3651 12.128 33.4691 11.752 33.5811 11.448C33.6611 11.224 33.7651 10.976 33.8931 10.704C34.0371 10.416 34.1651 10.176 34.2771 9.984C33.7811 10.176 33.3011 10.464 32.8371 10.848C32.3731 11.232 31.9491 11.624 31.5651 12.024C31.1971 12.408 30.8851 12.728 30.6291 12.984C30.5651 13.16 30.4371 13.304 30.2451 13.416C30.0691 13.528 29.9011 13.584 29.7411 13.584C29.5011 13.584 29.3811 13.48 29.3811 13.272C29.3811 13.192 29.4051 13.096 29.4531 12.984C29.6131 12.6 29.7891 12.208 29.9811 11.808C30.1891 11.392 30.3731 11.016 30.5331 10.68C30.7091 10.344 30.8291 10.112 30.8931 9.984C31.0211 9.76 31.0851 9.584 31.0851 9.456C31.0851 9.328 31.0291 9.264 30.9171 9.264C30.8051 9.264 30.6211 9.336 30.3651 9.48C30.1091 9.624 29.7731 9.88 29.3571 10.248C29.0211 10.552 28.6531 10.952 28.2531 11.448C27.8531 11.928 27.4691 12.424 27.1011 12.936C26.7331 13.448 26.4051 13.888 26.1171 14.256C25.8451 14.624 25.6531 14.84 25.5411 14.904C25.4451 14.952 25.2531 15.032 24.9651 15.144C24.6931 15.256 24.4851 15.312 24.3411 15.312ZM42.5333 6.648C42.3253 6.648 42.1093 6.632 41.8853 6.6C41.6613 6.552 41.5493 6.4 41.5493 6.144C41.5493 6.096 41.6533 5.984 41.8613 5.808C42.0853 5.632 42.3093 5.456 42.5333 5.28C42.7733 5.088 42.9173 4.976 42.9653 4.944C43.2373 4.72 43.4053 4.608 43.4693 4.608C43.5493 4.608 43.5493 4.712 43.4693 4.92C43.3893 5.128 43.3493 5.312 43.3493 5.472C43.3493 5.552 43.3013 5.688 43.2053 5.88C43.1093 6.072 42.9973 6.248 42.8693 6.408C42.7413 6.568 42.6293 6.648 42.5333 6.648ZM39.9173 15.24C39.6293 15.24 39.3653 15.176 39.1253 15.048C38.9013 14.92 38.7333 14.68 38.6213 14.328C38.6053 14.28 38.5893 14.232 38.5732 14.184C38.5732 14.136 38.5732 14.08 38.5732 14.016C38.5732 13.696 38.6453 13.296 38.7893 12.816C38.9333 12.336 39.1093 11.872 39.3173 11.424C39.2213 11.552 39.1093 11.712 38.9813 11.904C38.8533 12.08 38.6693 12.312 38.4293 12.6C38.3653 12.664 38.2933 12.696 38.2133 12.696C38.1013 12.696 38.0453 12.632 38.0453 12.504C38.0453 12.408 38.0773 12.328 38.1413 12.264C38.5573 11.736 38.9253 11.264 39.2453 10.848C39.5813 10.432 39.8293 10.08 39.9893 9.792C39.9893 9.776 39.9813 9.768 39.9653 9.768C39.9653 9.752 39.9653 9.736 39.9653 9.72C39.9653 9.672 39.9893 9.6 40.0373 9.504C40.1653 9.12 40.2933 8.8 40.4213 8.544C40.5653 8.272 40.7173 8.12 40.8773 8.088C40.9093 8.088 40.9413 8.088 40.9733 8.088C41.0053 8.072 41.0373 8.064 41.0693 8.064C41.2453 8.064 41.4053 8.104 41.5493 8.184C41.6933 8.264 41.7653 8.384 41.7653 8.544C41.7653 8.688 41.7093 8.864 41.5973 9.072C41.5013 9.28 41.3733 9.536 41.2133 9.84C40.8613 10.576 40.5413 11.248 40.2533 11.856C39.9813 12.448 39.8293 12.936 39.7973 13.32C39.7813 13.384 39.7733 13.448 39.7733 13.512C39.7733 13.56 39.7733 13.616 39.7733 13.68C39.7733 14.32 39.9813 14.64 40.3973 14.64C40.6533 14.64 40.9813 14.504 41.3813 14.232C41.7813 13.944 42.1893 13.6 42.6053 13.2C43.0213 12.784 43.3973 12.392 43.7333 12.024C44.0853 11.64 44.3253 11.352 44.4533 11.16C44.5013 11.112 44.5493 11.088 44.5973 11.088C44.6613 11.088 44.7093 11.112 44.7413 11.16C44.7893 11.208 44.7973 11.272 44.7653 11.352C44.6213 11.624 44.3733 11.968 44.0213 12.384C43.6853 12.784 43.3013 13.192 42.8693 13.608C42.4533 14.008 42.0453 14.352 41.6453 14.64C41.4373 14.8 41.1733 14.936 40.8533 15.048C40.5493 15.176 40.2373 15.24 39.9173 15.24ZM45.6913 15.24C45.0193 15.24 44.5473 15.072 44.2753 14.736C44.0193 14.4 43.8913 13.984 43.8913 13.488C43.8913 13.024 43.9953 12.44 44.2033 11.736C44.4273 11.032 44.7153 10.272 45.0673 9.456C45.4193 8.64 45.7953 7.832 46.1953 7.032C46.6113 6.216 47.0193 5.472 47.4193 4.8C47.8353 4.112 48.1953 3.56 48.4993 3.144C48.8033 2.744 49.1313 2.344 49.4833 1.944C49.8353 1.544 50.2273 1.208 50.6593 0.935999C51.0913 0.663999 51.5793 0.527999 52.1233 0.527999C52.4913 0.527999 52.8033 0.631999 53.0593 0.839999C53.3313 1.032 53.4673 1.328 53.4673 1.728C53.4673 1.888 53.4353 2.072 53.3713 2.28C53.3233 2.488 53.2353 2.704 53.1073 2.928C52.1313 4.624 50.9633 6.192 49.6033 7.632C48.2593 9.072 46.8353 10.408 45.3313 11.64C45.2673 11.88 45.2033 12.096 45.1393 12.288C45.0913 12.48 45.0513 12.632 45.0193 12.744C45.0033 12.824 44.9953 12.912 44.9953 13.008C44.9953 13.088 44.9953 13.168 44.9953 13.248C44.9953 13.632 45.0593 13.968 45.1873 14.256C45.3153 14.544 45.5313 14.688 45.8353 14.688C46.1233 14.688 46.4753 14.552 46.8913 14.28C47.3233 13.992 47.7553 13.648 48.1873 13.248C48.6193 12.832 49.0113 12.432 49.3633 12.048C49.7153 11.664 49.9633 11.368 50.1073 11.16C50.1553 11.112 50.2033 11.088 50.2513 11.088C50.3153 11.088 50.3633 11.12 50.3953 11.184C50.4433 11.248 50.4433 11.328 50.3953 11.424C50.2353 11.696 49.9793 12.032 49.6273 12.432C49.2753 12.832 48.8833 13.24 48.4513 13.656C48.0193 14.056 47.6033 14.408 47.2033 14.712C46.7073 15.064 46.2033 15.24 45.6913 15.24ZM45.6673 10.68C46.2753 10.264 46.9073 9.728 47.5633 9.072C48.2193 8.4 48.8593 7.672 49.4833 6.888C50.1233 6.104 50.6993 5.328 51.2113 4.56C51.7393 3.792 52.1633 3.096 52.4833 2.472C52.5793 2.296 52.6433 2.144 52.6753 2.016C52.7233 1.872 52.7473 1.744 52.7473 1.632C52.7473 1.328 52.6193 1.176 52.3633 1.176C52.1393 1.176 51.8593 1.296 51.5233 1.536C50.6593 2.208 49.8593 3.072 49.1233 4.128C48.3873 5.168 47.7313 6.264 47.1553 7.416C46.5793 8.568 46.0833 9.656 45.6673 10.68ZM55.2703 4.608C55.0783 4.608 54.9263 4.512 54.8143 4.32C54.7023 4.128 54.6463 3.968 54.6463 3.84C54.6463 3.68 54.7503 3.44 54.9583 3.12C55.1663 2.784 55.4223 2.432 55.7263 2.064C56.0303 1.68 56.3183 1.344 56.5903 1.056C56.8623 0.751999 57.0703 0.552 57.2143 0.456C57.2463 0.423999 57.2943 0.407999 57.3583 0.407999C57.4063 0.407999 57.4383 0.439999 57.4543 0.503999C57.4703 0.552 57.4783 0.592 57.4783 0.623999C57.4783 0.656 57.4223 0.736 57.3103 0.863999C57.1983 0.991999 57.0703 1.128 56.9263 1.272C56.7023 1.544 56.4943 1.832 56.3023 2.136C56.1103 2.44 55.9583 2.768 55.8463 3.12C55.7823 3.312 55.7503 3.464 55.7503 3.576C55.7503 3.736 55.7823 3.856 55.8463 3.936C55.9263 4.016 55.9583 4.16 55.9423 4.368C55.8463 4.48 55.7263 4.552 55.5823 4.584C55.4383 4.6 55.3343 4.608 55.2703 4.608ZM58.7162 16.2C58.0762 16.2 57.7562 16.024 57.7562 15.672C57.7562 15.416 57.8922 15.152 58.1642 14.88C58.3722 14.672 58.6042 14.504 58.8602 14.376C59.1162 14.248 59.2762 14.184 59.3402 14.184C59.4202 14.184 59.4602 14.216 59.4602 14.28C59.4762 14.344 59.4442 14.392 59.3642 14.424C59.2042 14.52 59.0202 14.656 58.8122 14.832C58.6202 14.992 58.5242 15.168 58.5242 15.36C58.5242 15.616 58.6762 15.744 58.9802 15.744C59.3482 15.744 59.7322 15.632 60.1322 15.408C60.5322 15.2 60.9002 14.928 61.2362 14.592C61.5882 14.256 61.8682 13.92 62.0762 13.584C62.3002 13.232 62.4122 12.928 62.4122 12.672C62.4122 12.464 62.3402 12.272 62.1962 12.096C62.0522 11.92 61.7562 11.712 61.3082 11.472C61.0042 11.296 60.7082 11.112 60.4202 10.92C60.1482 10.728 59.9402 10.496 59.7962 10.224C59.6682 10.448 59.5002 10.72 59.2922 11.04C59.1002 11.344 58.8682 11.664 58.5962 12C58.5002 12.096 58.4042 12.144 58.3082 12.144C58.2122 12.144 58.1642 12.104 58.1642 12.024C58.1642 11.976 58.2042 11.896 58.2842 11.784C58.7162 11.272 59.0362 10.8 59.2442 10.368C59.4522 9.936 59.5962 9.608 59.6762 9.384C59.7402 8.92 59.9562 8.48 60.3242 8.064C60.6922 7.648 61.1402 7.288 61.6682 6.984C62.1962 6.664 62.7322 6.416 63.2762 6.24C63.8362 6.064 64.3322 5.976 64.7642 5.976C65.1962 5.976 65.5802 6.056 65.9162 6.216C66.2522 6.376 66.4202 6.632 66.4202 6.984C66.4202 7.176 66.3642 7.384 66.2522 7.608C66.1082 7.912 65.8682 8.184 65.5322 8.424C65.5162 8.44 65.4922 8.448 65.4602 8.448C65.3322 8.448 65.2682 8.392 65.2682 8.28C65.2682 8.2 65.3082 8.12 65.3882 8.04C65.5162 7.928 65.6202 7.792 65.7002 7.632C65.7802 7.472 65.8202 7.32 65.8202 7.176C65.8202 6.888 65.6522 6.744 65.3162 6.744C64.9642 6.744 64.5002 6.84 63.9242 7.032C63.3642 7.224 62.8442 7.472 62.3642 7.776C61.8202 8.128 61.3642 8.512 60.9962 8.928C60.6282 9.344 60.4442 9.712 60.4442 10.032C60.4442 10.192 60.4922 10.344 60.5882 10.488C60.7002 10.616 60.9082 10.768 61.2122 10.944C61.3722 11.04 61.5962 11.168 61.8842 11.328C62.1722 11.472 62.4202 11.608 62.6282 11.736C63.2842 12.136 63.6122 12.56 63.6122 13.008C63.6122 13.376 63.4522 13.752 63.1322 14.136C62.8122 14.504 62.3962 14.84 61.8842 15.144C61.3882 15.464 60.8602 15.72 60.3002 15.912C59.7402 16.104 59.2122 16.2 58.7162 16.2ZM74.9078 16.104C74.0758 16.104 73.3078 15.96 72.6038 15.672C71.9158 15.4 71.3638 14.976 70.9478 14.4C70.5478 13.808 70.3478 13.056 70.3478 12.144C70.3478 11.632 70.4198 11.08 70.5638 10.488C70.7878 9.544 71.1558 8.6 71.6678 7.656C72.1958 6.712 72.8198 5.824 73.5398 4.992C74.2758 4.16 75.0758 3.424 75.9398 2.784C76.8038 2.128 77.6918 1.616 78.6038 1.248C79.5318 0.864 80.4518 0.672 81.3638 0.672C81.6358 0.672 81.9158 0.696 82.2038 0.743999C82.8438 0.855999 83.3158 1.096 83.6198 1.464C83.9398 1.816 84.0998 2.224 84.0998 2.688C84.0998 3.232 83.9238 3.776 83.5718 4.32C83.2198 4.864 82.7558 5.384 82.1797 5.88C81.6198 6.36 81.0038 6.792 80.3318 7.176C79.6758 7.56 79.0278 7.872 78.3878 8.112C77.7478 8.352 77.1798 8.488 76.6838 8.52C76.3798 8.536 76.2278 8.448 76.2278 8.256C76.2278 8.16 76.2758 8.064 76.3718 7.968C76.4838 7.856 76.6358 7.792 76.8278 7.776C78.0758 7.664 79.2358 7.288 80.3078 6.648C81.3958 5.992 82.2278 5.104 82.8038 3.984C82.9318 3.744 83.0278 3.504 83.0918 3.264C83.1718 3.008 83.2118 2.768 83.2118 2.544C83.2118 2.192 83.1078 1.896 82.8998 1.656C82.7078 1.4 82.3638 1.272 81.8678 1.272C81.3238 1.272 80.6838 1.44 79.9478 1.776C79.2118 2.096 78.4358 2.552 77.6198 3.144C76.8198 3.736 76.0278 4.44 75.2438 5.256C74.4758 6.056 73.7798 6.936 73.1558 7.896C72.5478 8.84 72.0758 9.84 71.7398 10.896C71.5318 11.536 71.4277 12.128 71.4277 12.672C71.4277 13.648 71.7638 14.368 72.4358 14.832C73.1078 15.28 73.9798 15.504 75.0518 15.504C75.9798 15.504 76.9958 15.344 78.0998 15.024C79.2198 14.704 80.3078 14.216 81.3638 13.56C82.4198 12.888 83.3078 12.04 84.0278 11.016C84.0758 10.952 84.1318 10.92 84.1958 10.92C84.2598 10.92 84.3158 10.952 84.3638 11.016C84.4278 11.08 84.4358 11.144 84.3878 11.208C83.5558 12.36 82.5958 13.296 81.5078 14.016C80.4358 14.736 79.3238 15.264 78.1718 15.6C77.0198 15.936 75.9318 16.104 74.9078 16.104ZM86.7921 15.288C86.5201 15.288 86.2801 15.224 86.0721 15.096C85.8641 14.984 85.7201 14.76 85.6401 14.424C85.5921 14.248 85.5681 14.072 85.5681 13.896C85.5681 13.416 85.6881 12.952 85.9281 12.504C86.1841 12.04 86.4801 11.616 86.8161 11.232C87.1521 10.832 87.4401 10.496 87.6801 10.224C87.8081 10.096 87.9521 9.928 88.1121 9.72C88.2881 9.512 88.3761 9.304 88.3761 9.096C88.3761 8.968 88.3121 8.848 88.1841 8.736C88.0561 8.608 87.8241 8.52 87.4881 8.472C87.2961 8.44 87.1121 8.416 86.9361 8.4C86.7761 8.368 86.6081 8.352 86.4321 8.352C85.9841 8.96 85.5441 9.576 85.1121 10.2C84.6961 10.808 84.2481 11.408 83.7681 12C83.6561 12.112 83.5601 12.168 83.4801 12.168C83.3841 12.168 83.3361 12.12 83.3361 12.024C83.3361 11.928 83.3841 11.832 83.4801 11.736C84.3441 10.68 85.0881 9.552 85.7121 8.352C85.6321 8.352 85.5121 8.352 85.3521 8.352C85.1921 8.336 85.0641 8.32 84.9681 8.304C84.8561 8.272 84.7681 8.224 84.7041 8.16C84.6401 8.096 84.6081 8.032 84.6081 7.968C84.6081 7.872 84.6481 7.816 84.7281 7.8C84.9361 7.736 85.1601 7.64 85.4001 7.512C85.6401 7.384 85.8641 7.216 86.0721 7.008C86.2961 6.784 86.5041 6.552 86.6961 6.312C86.8881 6.056 87.0401 5.864 87.1521 5.736C87.2641 5.656 87.3841 5.616 87.5121 5.616C87.5921 5.616 87.6641 5.64 87.7281 5.688C87.8081 5.736 87.8481 5.808 87.8481 5.904C87.8481 6.016 87.8001 6.16 87.7041 6.336C87.5601 6.56 87.4001 6.808 87.2241 7.08C87.0641 7.352 86.9121 7.6 86.7681 7.824C87.0561 7.84 87.3441 7.856 87.6321 7.872C87.9201 7.888 88.2161 7.896 88.5201 7.896C88.6801 7.896 88.8321 7.896 88.9761 7.896C89.1361 7.88 89.2961 7.872 89.4561 7.872C89.9361 7.872 90.1761 7.992 90.1761 8.232C90.1761 8.392 90.0881 8.592 89.9121 8.832C89.7521 9.056 89.5521 9.304 89.3121 9.576C88.7681 10.2 88.3041 10.856 87.9201 11.544C87.5361 12.232 87.2801 12.76 87.1521 13.128C87.0241 13.512 86.9601 13.8 86.9601 13.992C86.9601 14.376 87.1121 14.568 87.4161 14.568C87.6881 14.568 88.0161 14.432 88.4001 14.16C88.8001 13.888 89.2081 13.56 89.6241 13.176C90.0401 12.776 90.4161 12.392 90.7521 12.024C91.0881 11.64 91.3281 11.352 91.4721 11.16C91.5041 11.112 91.5521 11.088 91.6161 11.088C91.6801 11.088 91.7361 11.12 91.7841 11.184C91.8321 11.232 91.8321 11.296 91.7841 11.376C91.6081 11.648 91.3521 11.992 91.0161 12.408C90.6801 12.808 90.3041 13.208 89.8881 13.608C89.4721 14.008 89.0641 14.352 88.6641 14.64C88.4561 14.8 88.1681 14.944 87.8001 15.072C87.4481 15.216 87.1121 15.288 86.7921 15.288ZM93.3549 15.36C92.6349 15.36 92.0109 15.192 91.4829 14.856C90.9549 14.52 90.6909 14.008 90.6909 13.32C90.6909 12.952 90.8029 12.504 91.0269 11.976C91.1869 11.608 91.4829 11.184 91.9149 10.704C92.3469 10.224 92.8509 9.76 93.4269 9.312C94.0029 8.848 94.5869 8.472 95.1789 8.184C95.7709 7.88 96.3069 7.728 96.7869 7.728C96.9629 7.728 97.1229 7.752 97.2669 7.8C97.5389 7.896 97.7229 8.048 97.8189 8.256C97.9309 8.464 97.9869 8.68 97.9869 8.904C97.9869 9.112 97.9549 9.312 97.8909 9.504C97.8269 9.696 97.7469 9.864 97.6509 10.008C97.3629 10.44 96.9469 10.824 96.4029 11.16C95.8749 11.496 95.3309 11.76 94.7709 11.952C94.2269 12.144 93.7789 12.256 93.4269 12.288H93.3789C93.1709 12.288 93.0669 12.224 93.0669 12.096C93.0669 12.016 93.1309 11.976 93.2589 11.976C93.6429 11.944 94.1229 11.768 94.6989 11.448C95.2909 11.112 95.8109 10.768 96.2589 10.416C96.4509 10.256 96.6749 10.032 96.9309 9.744C97.2029 9.456 97.3389 9.176 97.3389 8.904C97.3389 8.616 97.2029 8.472 96.9309 8.472C96.7869 8.472 96.6349 8.504 96.4749 8.568C96.3309 8.632 96.2109 8.68 96.1149 8.712C95.6509 8.936 95.1389 9.288 94.5789 9.768C94.0189 10.232 93.5069 10.76 93.0429 11.352C92.5949 11.928 92.2829 12.512 92.1069 13.104C92.0589 13.232 92.0269 13.36 92.0109 13.488C91.9949 13.6 91.9869 13.712 91.9869 13.824C91.9869 14.208 92.1069 14.48 92.3469 14.64C92.6029 14.8 92.9069 14.88 93.2589 14.88C93.7869 14.88 94.3309 14.768 94.8909 14.544C95.4509 14.304 95.9949 14 96.5229 13.632C97.0509 13.264 97.5309 12.872 97.9629 12.456C98.4109 12.024 98.7869 11.608 99.0909 11.208C99.1389 11.144 99.1949 11.112 99.2589 11.112C99.3229 11.096 99.3629 11.104 99.3789 11.136C99.4429 11.152 99.4749 11.2 99.4749 11.28C99.4749 11.344 99.4589 11.408 99.4269 11.472C98.9789 12.096 98.4349 12.704 97.7949 13.296C97.1709 13.888 96.4749 14.384 95.7069 14.784C94.9549 15.168 94.1709 15.36 93.3549 15.36ZM105.531 15.24C105.259 15.24 105.003 15.176 104.763 15.048C104.539 14.92 104.371 14.68 104.259 14.328C104.211 14.184 104.187 13.984 104.187 13.728C104.187 13.376 104.235 12.984 104.331 12.552C104.427 12.12 104.531 11.752 104.643 11.448C104.563 11.48 104.411 11.624 104.187 11.88C103.979 12.12 103.715 12.416 103.395 12.768C103.091 13.104 102.747 13.448 102.363 13.8C101.995 14.136 101.611 14.416 101.211 14.64C100.811 14.864 100.419 14.976 100.035 14.976C99.779 14.976 99.507 14.904 99.219 14.76C98.931 14.6 98.699 14.4 98.523 14.16C98.283 13.84 98.163 13.512 98.163 13.176C98.163 12.744 98.307 12.296 98.595 11.832C98.899 11.368 99.283 10.92 99.747 10.488C100.227 10.04 100.731 9.64 101.259 9.288C101.803 8.92 102.315 8.616 102.795 8.376C103.291 8.12 103.691 7.952 103.995 7.872C104.315 7.776 104.675 7.728 105.075 7.728C105.299 7.728 105.531 7.76 105.771 7.824C106.011 7.872 106.211 7.96 106.371 8.088C106.499 8.152 106.603 8.24 106.683 8.352C106.763 8.464 106.803 8.584 106.803 8.712C106.803 8.84 106.747 8.88 106.635 8.832C106.507 8.64 106.331 8.52 106.107 8.472C105.899 8.408 105.683 8.376 105.459 8.376C104.819 8.376 104.115 8.584 103.347 9C102.579 9.416 101.891 9.904 101.283 10.464C101.091 10.624 100.827 10.904 100.491 11.304C100.171 11.688 99.875 12.112 99.603 12.576C99.331 13.04 99.195 13.464 99.195 13.848C99.195 14.056 99.251 14.24 99.363 14.4C99.427 14.512 99.531 14.568 99.675 14.568C99.899 14.568 100.195 14.448 100.563 14.208C100.947 13.968 101.339 13.68 101.739 13.344C102.139 12.992 102.499 12.656 102.819 12.336C103.155 12.016 103.395 11.784 103.539 11.64C103.619 11.56 103.771 11.4 103.995 11.16C104.235 10.904 104.491 10.632 104.763 10.344C105.035 10.056 105.275 9.808 105.483 9.6C105.707 9.392 105.851 9.288 105.915 9.288C105.995 9.288 106.123 9.312 106.299 9.36C106.491 9.392 106.651 9.448 106.779 9.528C106.907 9.608 106.931 9.712 106.851 9.84C106.435 10.448 106.099 11.088 105.843 11.76C105.603 12.416 105.459 12.936 105.411 13.32C105.395 13.384 105.387 13.448 105.387 13.512C105.387 13.56 105.387 13.616 105.387 13.68C105.387 14.32 105.611 14.64 106.059 14.64C106.299 14.64 106.619 14.496 107.019 14.208C107.419 13.92 107.827 13.576 108.243 13.176C108.659 12.776 109.035 12.392 109.371 12.024C109.723 11.64 109.963 11.352 110.091 11.16C110.139 11.112 110.187 11.088 110.235 11.088C110.299 11.088 110.355 11.12 110.403 11.184C110.451 11.232 110.451 11.296 110.403 11.376C110.227 11.664 109.971 12.008 109.635 12.408C109.299 12.808 108.923 13.208 108.507 13.608C108.091 14.008 107.683 14.352 107.283 14.64C107.075 14.8 106.811 14.936 106.491 15.048C106.171 15.176 105.851 15.24 105.531 15.24ZM110.886 15.24C110.598 15.24 110.334 15.176 110.094 15.048C109.87 14.92 109.702 14.68 109.59 14.328C109.574 14.28 109.558 14.232 109.542 14.184C109.542 14.136 109.542 14.08 109.542 14.016C109.542 13.696 109.614 13.296 109.758 12.816C109.902 12.336 110.078 11.872 110.286 11.424C110.19 11.552 110.078 11.712 109.95 11.904C109.822 12.08 109.638 12.312 109.398 12.6C109.334 12.664 109.262 12.696 109.182 12.696C109.07 12.696 109.014 12.632 109.014 12.504C109.014 12.408 109.046 12.328 109.11 12.264C109.526 11.736 109.894 11.264 110.214 10.848C110.55 10.432 110.798 10.08 110.958 9.792C110.958 9.76 111.006 9.664 111.102 9.504C111.198 9.328 111.326 9.088 111.486 8.784C111.358 8.8 111.246 8.816 111.15 8.832C111.07 8.832 110.998 8.832 110.934 8.832C110.822 8.832 110.726 8.784 110.646 8.688C110.566 8.592 110.558 8.472 110.622 8.328C110.702 8.104 110.878 7.976 111.15 7.944C111.422 7.912 111.662 7.888 111.87 7.872C111.886 7.84 111.918 7.824 111.966 7.824C112.158 7.472 112.342 7.128 112.518 6.792C112.694 6.456 112.838 6.176 112.95 5.952C113.078 5.728 113.142 5.608 113.142 5.592C113.462 5.08 113.67 4.744 113.766 4.584C113.862 4.408 113.99 4.304 114.15 4.272C114.326 4.256 114.51 4.264 114.702 4.296C114.91 4.328 115.046 4.4 115.11 4.512C115.158 4.576 115.182 4.656 115.182 4.752C115.182 4.896 115.15 5.04 115.086 5.184C115.022 5.312 114.958 5.416 114.894 5.496C114.83 5.608 114.742 5.688 114.63 5.736C114.534 5.768 114.446 5.864 114.366 6.024C114.206 6.328 114.03 6.656 113.838 7.008C113.646 7.36 113.446 7.696 113.238 8.016L113.526 7.992C113.91 7.96 114.27 7.92 114.606 7.872C114.958 7.824 115.358 7.808 115.806 7.824C115.886 7.824 115.966 7.84 116.046 7.872C116.142 7.888 116.19 7.92 116.19 7.968C116.19 8.032 115.982 8.12 115.566 8.232C115.406 8.296 115.054 8.368 114.51 8.448C113.982 8.512 113.438 8.576 112.878 8.64C112.718 8.944 112.574 9.2 112.446 9.408C112.318 9.6 112.23 9.744 112.182 9.84C111.83 10.576 111.51 11.248 111.222 11.856C110.95 12.448 110.798 12.936 110.766 13.32C110.75 13.384 110.742 13.448 110.742 13.512C110.742 13.56 110.742 13.616 110.742 13.68C110.742 14.32 110.95 14.64 111.366 14.64C111.622 14.64 111.95 14.504 112.35 14.232C112.75 13.944 113.158 13.6 113.574 13.2C113.99 12.784 114.366 12.392 114.702 12.024C115.054 11.64 115.294 11.352 115.422 11.16C115.47 11.112 115.518 11.088 115.566 11.088C115.63 11.088 115.678 11.112 115.71 11.16C115.758 11.208 115.766 11.272 115.734 11.352C115.59 11.624 115.342 11.968 114.99 12.384C114.654 12.784 114.27 13.192 113.838 13.608C113.422 14.008 113.014 14.352 112.614 14.64C112.406 14.8 112.142 14.936 111.822 15.048C111.518 15.176 111.206 15.24 110.886 15.24ZM118.916 6.648C118.708 6.648 118.492 6.632 118.268 6.6C118.044 6.552 117.932 6.4 117.932 6.144C117.932 6.096 118.036 5.984 118.244 5.808C118.468 5.632 118.692 5.456 118.916 5.28C119.156 5.088 119.3 4.976 119.348 4.944C119.62 4.72 119.788 4.608 119.852 4.608C119.932 4.608 119.932 4.712 119.852 4.92C119.772 5.128 119.732 5.312 119.732 5.472C119.732 5.552 119.684 5.688 119.588 5.88C119.492 6.072 119.38 6.248 119.252 6.408C119.124 6.568 119.012 6.648 118.916 6.648ZM116.3 15.24C116.012 15.24 115.748 15.176 115.508 15.048C115.284 14.92 115.116 14.68 115.004 14.328C114.988 14.28 114.972 14.232 114.956 14.184C114.956 14.136 114.956 14.08 114.956 14.016C114.956 13.696 115.028 13.296 115.172 12.816C115.316 12.336 115.492 11.872 115.7 11.424C115.604 11.552 115.492 11.712 115.364 11.904C115.236 12.08 115.052 12.312 114.812 12.6C114.748 12.664 114.676 12.696 114.596 12.696C114.484 12.696 114.428 12.632 114.428 12.504C114.428 12.408 114.46 12.328 114.524 12.264C114.94 11.736 115.308 11.264 115.628 10.848C115.964 10.432 116.212 10.08 116.372 9.792C116.372 9.776 116.364 9.768 116.348 9.768C116.348 9.752 116.348 9.736 116.348 9.72C116.348 9.672 116.372 9.6 116.42 9.504C116.548 9.12 116.676 8.8 116.804 8.544C116.948 8.272 117.1 8.12 117.26 8.088C117.292 8.088 117.324 8.088 117.356 8.088C117.388 8.072 117.42 8.064 117.452 8.064C117.628 8.064 117.788 8.104 117.932 8.184C118.076 8.264 118.148 8.384 118.148 8.544C118.148 8.688 118.092 8.864 117.98 9.072C117.884 9.28 117.756 9.536 117.596 9.84C117.244 10.576 116.924 11.248 116.636 11.856C116.364 12.448 116.212 12.936 116.18 13.32C116.164 13.384 116.156 13.448 116.156 13.512C116.156 13.56 116.156 13.616 116.156 13.68C116.156 14.32 116.364 14.64 116.78 14.64C117.036 14.64 117.364 14.504 117.764 14.232C118.164 13.944 118.572 13.6 118.988 13.2C119.404 12.784 119.78 12.392 120.116 12.024C120.468 11.64 120.708 11.352 120.836 11.16C120.884 11.112 120.932 11.088 120.98 11.088C121.044 11.088 121.092 11.112 121.124 11.16C121.172 11.208 121.18 11.272 121.148 11.352C121.004 11.624 120.756 11.968 120.404 12.384C120.068 12.784 119.684 13.192 119.252 13.608C118.836 14.008 118.428 14.352 118.028 14.64C117.82 14.8 117.556 14.936 117.236 15.048C116.932 15.176 116.62 15.24 116.3 15.24ZM122.41 15.264C121.962 15.264 121.57 15.16 121.234 14.952C120.674 14.616 120.394 14.008 120.394 13.128C120.394 12.76 120.458 12.336 120.586 11.856C120.698 11.456 120.898 11.024 121.186 10.56C121.474 10.08 121.81 9.624 122.194 9.192C122.594 8.76 123.026 8.408 123.49 8.136C123.954 7.864 124.418 7.728 124.882 7.728C125.074 7.728 125.242 7.752 125.386 7.8C125.578 7.864 125.738 7.984 125.866 8.16C126.01 8.32 126.082 8.528 126.082 8.784C126.082 9.056 126.01 9.208 125.866 9.24C125.738 9.272 125.674 9.24 125.674 9.144C125.674 9.112 125.674 9.08 125.674 9.048C125.69 9.016 125.698 8.992 125.698 8.976C125.698 8.848 125.658 8.736 125.578 8.64C125.514 8.528 125.386 8.472 125.194 8.472C124.938 8.472 124.618 8.608 124.234 8.88C123.866 9.152 123.482 9.52 123.082 9.984C122.698 10.432 122.354 10.928 122.05 11.472C121.762 12.016 121.57 12.56 121.474 13.104C121.458 13.184 121.442 13.264 121.426 13.344C121.426 13.408 121.426 13.48 121.426 13.56C121.426 13.928 121.506 14.24 121.666 14.496C121.842 14.736 122.114 14.856 122.482 14.856C122.93 14.856 123.362 14.688 123.778 14.352C124.194 14 124.562 13.584 124.882 13.104C125.218 12.624 125.466 12.2 125.626 11.832C125.754 11.544 125.842 11.296 125.89 11.088C125.938 10.88 125.962 10.704 125.962 10.56C125.962 10.432 125.946 10.32 125.914 10.224C125.898 10.128 125.874 10.048 125.842 9.984C125.81 9.888 125.794 9.816 125.794 9.768C125.794 9.64 125.842 9.536 125.938 9.456C126.05 9.376 126.162 9.336 126.274 9.336C126.37 9.336 126.474 9.368 126.586 9.432C126.714 9.464 126.89 9.488 127.114 9.504C127.338 9.52 127.578 9.528 127.834 9.528C128.106 9.528 128.378 9.52 128.65 9.504C128.938 9.488 129.186 9.456 129.394 9.408C129.426 9.392 129.474 9.384 129.538 9.384C129.65 9.384 129.706 9.416 129.706 9.48C129.706 9.544 129.65 9.6 129.538 9.648C128.978 9.904 128.474 10.04 128.026 10.056C127.594 10.072 127.218 10.08 126.898 10.08C126.93 10.48 126.842 10.912 126.634 11.376C126.426 11.824 126.21 12.224 125.986 12.576C125.714 12.976 125.402 13.384 125.05 13.8C124.698 14.216 124.306 14.568 123.874 14.856C123.442 15.128 122.954 15.264 122.41 15.264ZM127.85 15.312C127.738 15.312 127.706 15.256 127.754 15.144C127.802 15.048 127.89 14.832 128.018 14.496C128.146 14.144 128.29 13.728 128.45 13.248C128.626 12.768 128.802 12.272 128.978 11.76C129.154 11.248 129.314 10.768 129.458 10.32C129.618 9.872 129.746 9.52 129.842 9.264C129.874 9.168 129.906 9.032 129.938 8.856C129.97 8.664 130.034 8.496 130.13 8.352C130.242 8.192 130.426 8.112 130.682 8.112C131.162 8.112 131.402 8.224 131.402 8.448C131.402 8.528 131.362 8.664 131.282 8.856C131.09 9.288 130.882 9.784 130.658 10.344C130.434 10.904 130.234 11.432 130.058 11.928C129.882 12.424 129.746 12.808 129.65 13.08C129.81 12.856 130.066 12.536 130.418 12.12C130.786 11.704 131.194 11.256 131.642 10.776C132.09 10.296 132.554 9.832 133.034 9.384C133.53 8.936 133.986 8.576 134.402 8.304C134.834 8.016 135.202 7.872 135.506 7.872C135.89 7.872 136.082 8.08 136.082 8.496C136.082 8.64 136.042 8.856 135.962 9.144C135.818 9.544 135.634 9.936 135.41 10.32C135.186 10.688 134.986 11.08 134.81 11.496C134.506 12.248 134.33 12.856 134.282 13.32C134.266 13.384 134.258 13.448 134.258 13.512C134.258 13.56 134.258 13.616 134.258 13.68C134.258 14.32 134.474 14.64 134.906 14.64C135.146 14.64 135.466 14.496 135.866 14.208C136.266 13.92 136.674 13.576 137.09 13.176C137.522 12.776 137.906 12.392 138.242 12.024C138.578 11.64 138.81 11.352 138.938 11.16C138.986 11.112 139.034 11.088 139.082 11.088C139.146 11.088 139.194 11.112 139.226 11.16C139.274 11.208 139.282 11.272 139.25 11.352C139.106 11.624 138.858 11.968 138.506 12.384C138.17 12.784 137.794 13.192 137.378 13.608C136.962 14.008 136.554 14.352 136.154 14.64C135.914 14.8 135.618 14.944 135.266 15.072C134.914 15.2 134.562 15.256 134.21 15.24C133.762 15.192 133.442 15.04 133.25 14.784C133.058 14.512 132.962 14.192 132.962 13.824C132.962 13.392 133.042 12.936 133.202 12.456C133.378 11.96 133.57 11.496 133.778 11.064C133.986 10.632 134.154 10.304 134.282 10.08C134.41 9.824 134.474 9.624 134.474 9.48C134.474 9.352 134.418 9.288 134.306 9.288C134.194 9.288 134.026 9.36 133.802 9.504C133.578 9.648 133.274 9.896 132.89 10.248C132.538 10.552 132.162 10.952 131.762 11.448C131.362 11.928 130.97 12.424 130.586 12.936C130.218 13.448 129.89 13.888 129.602 14.256C129.33 14.624 129.138 14.84 129.026 14.904C128.946 14.952 128.762 15.032 128.474 15.144C128.202 15.256 127.994 15.312 127.85 15.312Z" fill="black"/>
</svg>
